<svg xmlns="http://www.w3.org/2000/svg" style="display: none;"><symbol id="placeholder" viewBox="0 0 512 512"><title>placeholder</title><g> <g> <path d="M256,0C150.112,0,64,86.112,64,192c0,133.088,173.312,307.936,180.672,315.328C247.808,510.432,251.904,512,256,512 s8.192-1.568,11.328-4.672C274.688,499.936,448,325.088,448,192C448,86.112,361.888,0,256,0z M256,472.864 C217.792,431.968,96,293.664,96,192c0-88.224,71.776-160,160-160s160,71.776,160,160C416,293.568,294.208,431.968,256,472.864z" fill="#379aff" data-original="#000000"/> </g> </g><g> <g> <path d="M256,96c-52.928,0-96,43.072-96,96s43.072,96,96,96c52.928,0,96-43.072,96-96C352,139.072,308.928,96,256,96z M256,256 c-35.296,0-64-28.704-64-64s28.704-64,64-64s64,28.704,64,64S291.296,256,256,256z" fill="#379aff" data-original="#000000"/> </g> </g></symbol><symbol id="home" viewBox="0 1 511 511.999"><title>home</title><path d="m498.699219 222.695312c-.015625-.011718-.027344-.027343-.039063-.039062l-208.855468-208.847656c-8.902344-8.90625-20.738282-13.808594-33.328126-13.808594-12.589843 0-24.425781 4.902344-33.332031 13.808594l-208.746093 208.742187c-.070313.070313-.144532.144531-.210938.214844-18.28125 18.386719-18.25 48.21875.089844 66.558594 8.378906 8.382812 19.441406 13.234375 31.273437 13.746093.484375.046876.96875.070313 1.457031.070313h8.320313v153.695313c0 30.417968 24.75 55.164062 55.167969 55.164062h81.710937c8.285157 0 15-6.71875 15-15v-120.5c0-13.878906 11.292969-25.167969 25.171875-25.167969h48.195313c13.878906 0 25.167969 11.289063 25.167969 25.167969v120.5c0 8.28125 6.714843 15 15 15h81.710937c30.421875 0 55.167969-24.746094 55.167969-55.164062v-153.695313h7.71875c12.585937 0 24.421875-4.902344 33.332031-13.8125 18.359375-18.367187 18.367187-48.253906.027344-66.632813zm-21.242188 45.421876c-3.238281 3.238281-7.542969 5.023437-12.117187 5.023437h-22.71875c-8.285156 0-15 6.714844-15 15v168.695313c0 13.875-11.289063 25.164062-25.167969 25.164062h-66.710937v-105.5c0-30.417969-24.746094-55.167969-55.167969-55.167969h-48.195313c-30.421875 0-55.171875 24.75-55.171875 55.167969v105.5h-66.710937c-13.875 0-25.167969-11.289062-25.167969-25.164062v-168.695313c0-8.285156-6.714844-15-15-15h-22.328125c-.234375-.015625-.464844-.027344-.703125-.03125-4.46875-.078125-8.660156-1.851563-11.800781-4.996094-6.679688-6.679687-6.679688-17.550781 0-24.234375.003906 0 .003906-.003906.007812-.007812l.011719-.011719 208.847656-208.839844c3.234375-3.238281 7.535157-5.019531 12.113281-5.019531 4.574219 0 8.875 1.78125 12.113282 5.019531l208.800781 208.796875c.03125.03125.066406.0625.097656.09375 6.644531 6.691406 6.632813 17.539063-.03125 24.207032zm0 0" fill="#379aff" data-original="#000000" /></symbol><symbol id="user" viewBox="-42 0 512 512.001"><title>user</title><path d="m210.351562 246.632812c33.882813 0 63.21875-12.152343 87.195313-36.128906 23.96875-23.972656 36.125-53.304687 36.125-87.191406 0-33.875-12.152344-63.210938-36.128906-87.191406-23.976563-23.96875-53.3125-36.121094-87.191407-36.121094-33.886718 0-63.21875 12.152344-87.191406 36.125s-36.128906 53.308594-36.128906 87.1875c0 33.886719 12.15625 63.222656 36.128906 87.195312 23.980469 23.96875 53.316406 36.125 87.191406 36.125zm-65.972656-189.292968c18.394532-18.394532 39.972656-27.335938 65.972656-27.335938 25.996094 0 47.578126 8.941406 65.976563 27.335938 18.394531 18.398437 27.339844 39.980468 27.339844 65.972656 0 26-8.945313 47.578125-27.339844 65.976562-18.398437 18.398438-39.980469 27.339844-65.976563 27.339844-25.992187 0-47.570312-8.945312-65.972656-27.339844-18.398437-18.394531-27.34375-39.976562-27.34375-65.976562 0-25.992188 8.945313-47.574219 27.34375-65.972656zm0 0" fill="#379aff" data-original="#000000"/><path d="m426.128906 393.703125c-.691406-9.976563-2.089844-20.859375-4.148437-32.351563-2.078125-11.578124-4.753907-22.523437-7.957031-32.527343-3.3125-10.339844-7.808594-20.550781-13.375-30.335938-5.769532-10.15625-12.550782-19-20.160157-26.277343-7.957031-7.613282-17.699219-13.734376-28.964843-18.199219-11.226563-4.441407-23.667969-6.691407-36.976563-6.691407-5.226563 0-10.28125 2.144532-20.042969 8.5-6.007812 3.917969-13.035156 8.449219-20.878906 13.460938-6.707031 4.273438-15.792969 8.277344-27.015625 11.902344-10.949219 3.542968-22.066406 5.339844-33.042969 5.339844-10.96875 0-22.085937-1.796876-33.042968-5.339844-11.210938-3.621094-20.300782-7.625-26.996094-11.898438-7.769532-4.964844-14.800782-9.496094-20.898438-13.46875-9.753906-6.355468-14.808594-8.5-20.035156-8.5-13.3125 0-25.75 2.253906-36.972656 6.699219-11.257813 4.457031-21.003906 10.578125-28.96875 18.199219-7.609375 7.28125-14.390625 16.121094-20.15625 26.273437-5.558594 9.785157-10.058594 19.992188-13.371094 30.339844-3.199219 10.003906-5.875 20.945313-7.953125 32.523437-2.0625 11.476563-3.457031 22.363282-4.148437 32.363282-.679688 9.777344-1.023438 19.953125-1.023438 30.234375 0 26.726562 8.496094 48.363281 25.25 64.320312 16.546875 15.746094 38.4375 23.730469 65.066406 23.730469h246.53125c26.621094 0 48.511719-7.984375 65.0625-23.730469 16.757813-15.945312 25.253906-37.589843 25.253906-64.324219-.003906-10.316406-.351562-20.492187-1.035156-30.242187zm-44.90625 72.828125c-10.933594 10.40625-25.449218 15.464844-44.378906 15.464844h-246.527344c-18.933594 0-33.449218-5.058594-44.378906-15.460938-10.722656-10.207031-15.933594-24.140625-15.933594-42.585937 0-9.59375.316406-19.066407.949219-28.160157.617187-8.921874 1.878906-18.722656 3.75-29.136718 1.847656-10.285156 4.199219-19.9375 6.996094-28.675782 2.683593-8.378906 6.34375-16.675781 10.882812-24.667968 4.332031-7.617188 9.316407-14.152344 14.816407-19.417969 5.144531-4.925781 11.628906-8.957031 19.269531-11.980469 7.066406-2.796875 15.007812-4.328125 23.628906-4.558594 1.050781.558594 2.921875 1.625 5.953125 3.601563 6.167969 4.019531 13.277344 8.605469 21.136719 13.625 8.859375 5.648437 20.273437 10.75 33.910156 15.152344 13.941406 4.507812 28.160156 6.796875 42.273437 6.796875 14.113282 0 28.335938-2.289063 42.269532-6.792969 13.648437-4.410156 25.058594-9.507813 33.929687-15.164063 8.042969-5.140624 14.953125-9.59375 21.121094-13.617187 3.03125-1.972656 4.902344-3.042969 5.953125-3.601563 8.625.230469 16.566406 1.761719 23.636719 4.558594 7.636719 3.023438 14.121093 7.058594 19.265625 11.980469 5.5 5.261719 10.484375 11.796875 14.816406 19.421875 4.542969 7.988281 8.207031 16.289062 10.886719 24.660156 2.800781 8.75 5.15625 18.398438 7 28.675782 1.867187 10.433593 3.132812 20.238281 3.75 29.144531v.007812c.636719 9.058594.957031 18.527344.960937 28.148438-.003906 18.449219-5.214844 32.378906-15.9375 42.582031zm0 0" fill="#379aff" data-original="#000000"/></symbol><symbol id="loupe" viewBox="0 0 512.005 512.005"><title>loupe</title><path d="M505.749,475.587l-145.6-145.6c28.203-34.837,45.184-79.104,45.184-127.317c0-111.744-90.923-202.667-202.667-202.667 S0,90.925,0,202.669s90.923,202.667,202.667,202.667c48.213,0,92.48-16.981,127.317-45.184l145.6,145.6 c4.16,4.16,9.621,6.251,15.083,6.251s10.923-2.091,15.083-6.251C514.091,497.411,514.091,483.928,505.749,475.587z M202.667,362.669c-88.235,0-160-71.765-160-160s71.765-160,160-160s160,71.765,160,160S290.901,362.669,202.667,362.669z" fill="#379aff" data-original="#000000" style="" class=""/></symbol><symbol id="baby-boy" viewBox="0 0 505.994 505.994"><title>baby-boy</title><path d="m216.784 280.57c0-26.935-21.913-48.848-48.848-48.848s-48.849 21.913-48.849 48.848h29.648c0-10.587 8.614-19.2 19.201-19.2s19.2 8.613 19.2 19.2z" fill="#379aff" data-original="#000000" style=""/><path d="m338.058 231.721c-26.935 0-48.848 21.913-48.848 48.848h29.648c0-10.587 8.613-19.2 19.2-19.2s19.201 8.613 19.201 19.2h29.648c0-26.935-21.913-48.848-48.849-48.848z" fill="#379aff" data-original="#000000" style=""/><path d="m252.997 367.32c-18.744 0-36.319-10.052-45.869-26.234l-25.534 15.066c14.856 25.176 42.216 40.815 71.402 40.815s56.546-15.639 71.402-40.815l-25.534-15.067c-9.548 16.182-27.124 26.235-45.867 26.235z" fill="#379aff" data-original="#000000" style=""/><path d="m486.704 228.061c-9.442-9.431-21.299-15.667-34.169-18.109-27.794-85.888-108.42-145.023-199.538-145.023h-9.939c-23.868 0-43.286-19.419-43.286-43.286h-29.648c0 16.196 5.313 31.17 14.278 43.286h-9.393c-23.868 0-43.286-19.419-43.286-43.286h-29.648c0 32.213 20.999 59.596 50.02 69.226-45.899 25.234-81.875 67.29-98.635 119.083-12.87 2.442-24.73 8.68-34.18 18.12-12.433 12.446-19.28 28.984-19.28 46.568 0 17.368 6.7 33.754 18.867 46.141 9.509 9.681 21.518 16.069 34.593 18.548 27.792 85.888 108.418 145.022 199.537 145.022s171.744-59.134 199.537-145.022c13.075-2.479 25.084-8.867 34.593-18.548 12.167-12.387 18.867-28.773 18.867-46.141 0-17.584-6.847-34.122-19.29-46.579zm-45.85 82.771-11.125.211-2.905 10.741c-21.164 78.26-92.644 132.918-173.828 132.918s-152.663-54.657-173.826-132.918l-2.905-10.741-11.125-.211c-19.571-.37-35.493-16.605-35.493-36.192 0-9.671 3.767-18.768 10.595-25.604 6.659-6.652 15.501-10.413 24.895-10.589l11.127-.209 2.905-10.743c21.164-78.259 92.644-132.917 173.828-132.917 26.795 0 48.594 21.799 48.594 48.594s-21.799 48.595-48.594 48.595-48.594-21.799-48.594-48.594h-29.648c0 43.143 35.099 78.242 78.242 78.242s78.242-35.099 78.242-78.242c0-12.278-2.85-23.899-7.912-34.251 49.725 21.151 88.779 64.152 103.497 118.574l2.905 10.743 11.127.209c9.395.176 18.236 3.937 24.884 10.577 6.84 6.848 10.607 15.945 10.607 25.616-.001 19.587-15.923 35.822-35.493 36.191z" fill="#379aff" data-original="#000000" style=""/></symbol><symbol id="star" viewBox="0 0 511.98685 511"><title>star</title><path xmlns="http://www.w3.org/2000/svg" d="m114.59375 491.140625c-5.609375 0-11.179688-1.75-15.933594-5.1875-8.855468-6.417969-12.992187-17.449219-10.582031-28.09375l32.9375-145.089844-111.703125-97.960937c-8.210938-7.167969-11.347656-18.519532-7.976562-28.90625 3.371093-10.367188 12.542968-17.707032 23.402343-18.710938l147.796875-13.417968 58.433594-136.746094c4.308594-10.046875 14.121094-16.535156 25.023438-16.535156 10.902343 0 20.714843 6.488281 25.023437 16.511718l58.433594 136.769532 147.773437 13.417968c10.882813.980469 20.054688 8.34375 23.425782 18.710938 3.371093 10.367187.253906 21.738281-7.957032 28.90625l-111.703125 97.941406 32.9375 145.085938c2.414063 10.667968-1.726562 21.699218-10.578125 28.097656-8.832031 6.398437-20.609375 6.890625-29.910156 1.300781l-127.445312-76.160156-127.445313 76.203125c-4.308594 2.558594-9.109375 3.863281-13.953125 3.863281zm141.398438-112.875c4.84375 0 9.640624 1.300781 13.953124 3.859375l120.277344 71.9375-31.085937-136.941406c-2.21875-9.746094 1.089843-19.921875 8.621093-26.515625l105.472657-92.5-139.542969-12.671875c-10.046875-.917969-18.6875-7.234375-22.613281-16.492188l-55.082031-129.046875-55.148438 129.066407c-3.882812 9.195312-12.523438 15.511718-22.546875 16.429687l-139.5625 12.671875 105.46875 92.5c7.554687 6.613281 10.859375 16.769531 8.621094 26.539062l-31.0625 136.9375 120.277343-71.914062c4.308594-2.558594 9.109376-3.859375 13.953126-3.859375zm-84.585938-221.847656s0 .023437-.023438.042969zm169.128906-.0625.023438.042969c0-.023438 0-.023438-.023438-.042969zm0 0" fill="#379aff" data-original="#000000" style="" class=""/></symbol><symbol id="date" viewBox="0 0 477.867 477.867"><title>date</title><g> <g> <path d="M426.667,51.2h-51.2V17.067C375.467,7.641,367.826,0,358.4,0s-17.067,7.641-17.067,17.067V51.2h-204.8V17.067 C136.533,7.641,128.892,0,119.467,0S102.4,7.641,102.4,17.067V51.2H51.2C22.923,51.2,0,74.123,0,102.4v324.267 c0,28.277,22.923,51.2,51.2,51.2h375.467c28.277,0,51.2-22.923,51.2-51.2V102.4C477.867,74.123,454.944,51.2,426.667,51.2z M443.733,426.667c0,9.426-7.641,17.067-17.067,17.067H51.2c-9.426,0-17.067-7.641-17.067-17.067V204.8h409.6V426.667z M443.733,170.667h-409.6V102.4c0-9.426,7.641-17.067,17.067-17.067h51.2v34.133c0,9.426,7.641,17.067,17.067,17.067 s17.067-7.641,17.067-17.067V85.333h204.8v34.133c0,9.426,7.641,17.067,17.067,17.067s17.067-7.641,17.067-17.067V85.333h51.2 c9.426,0,17.067,7.641,17.067,17.067V170.667z" fill="#379aff" data-original="#000000"/> </g> </g><g> <g> <path d="M352.98,243.934c-6.614-6.388-17.099-6.388-23.712,0L204.8,368.401l-56.201-56.201c-6.78-6.548-17.584-6.36-24.132,0.419 c-6.388,6.614-6.388,17.099,0,23.713l68.267,68.267c6.665,6.662,17.468,6.662,24.132,0l136.533-136.533 C359.947,261.286,359.759,250.482,352.98,243.934z" fill="#379aff" data-original="#000000"/> </g> </g></symbol><symbol id="copyright" viewBox="0 0 512 512"><title>copyright</title><path d="m256 512c-68.38 0-132.667-26.629-181.02-74.98-48.351-48.353-74.98-112.64-74.98-181.02s26.629-132.667 74.98-181.02c48.353-48.351 112.64-74.98 181.02-74.98s132.667 26.629 181.02 74.98c48.351 48.353 74.98 112.64 74.98 181.02s-26.629 132.667-74.98 181.02c-48.353 48.351-112.64 74.98-181.02 74.98zm0-472c-119.103 0-216 96.897-216 216s96.897 216 216 216 216-96.897 216-216-96.897-216-216-216zm90.313 307.924c7.81-7.811 7.811-20.474 0-28.284-7.812-7.811-20.475-7.81-28.284 0-35.092 35.09-92.188 35.092-127.28 0-16.998-16.999-26.36-39.6-26.36-63.64s9.362-46.641 26.36-63.64c35.092-35.092 92.188-35.09 127.28 0 7.811 7.811 20.474 7.811 28.284 0s7.81-20.474 0-28.284c-50.688-50.687-133.162-50.686-183.848 0-24.555 24.554-38.077 57.2-38.077 91.924s13.522 67.37 38.077 91.924c25.343 25.343 58.633 38.015 91.924 38.015s66.581-12.672 91.924-38.015z" fill="#ccc" data-original="#000000"/></symbol></svg>